<?xml version="1.0" encoding="UTF-8" standalone="no"?>
<!-- Created with Inkscape (http://www.inkscape.org/) -->

<svg
   xmlns:dc="http://purl.org/dc/elements/1.1/"
   xmlns:cc="http://creativecommons.org/ns#"
   xmlns:rdf="http://www.w3.org/1999/02/22-rdf-syntax-ns#"
   xmlns:svg="http://www.w3.org/2000/svg"
   xmlns="http://www.w3.org/2000/svg"
   xmlns:sodipodi="http://sodipodi.sourceforge.net/DTD/sodipodi-0.dtd"
   xmlns:inkscape="http://www.inkscape.org/namespaces/inkscape"
   width="10.16mm"
   height="128.5mm"
   viewBox="0 0 10.16 128.5"
   version="1.1"
   id="svg8"
   inkscape:version="0.92.4 5da689c313, 2019-01-14"
   sodipodi:docname="PointCounter.svg">
  <defs
     id="defs2">
    <inkscape:perspective
       sodipodi:type="inkscape:persp3d"
       inkscape:vp_x="0 : 64.25 : 1"
       inkscape:vp_y="0 : 1000 : 0"
       inkscape:vp_z="71.120008 : 64.25 : 1"
       inkscape:persp3d-origin="35.560003 : 42.833333 : 1"
       id="perspective1087" />
    <clipPath
       id="clip89">
      <rect
         id="rect4864"
         height="19"
         width="18"
         x="0"
         y="0" />
    </clipPath>
    <clipPath
       id="clip90">
      <path
         id="path4861"
         d="m 0.898438,0.128906 h 16.25 v 17.882813 h -16.25 z m 0,0"
         inkscape:connector-curvature="0" />
    </clipPath>
    <mask
       id="mask44">
      <g
         transform="matrix(0.26458333,0,0,0.26458333,89.358789,128.57765)"
         id="g4858"
         style="filter:url(#alpha)">
        <rect
           id="rect4856"
           style="fill:#000000;fill-opacity:0.14999402;stroke:none"
           height="3351.5"
           width="3052.8701"
           y="0"
           x="0" />
      </g>
    </mask>
    <filter
       height="1"
       width="1"
       y="0"
       x="0"
       filterUnits="objectBoundingBox"
       id="alpha">
      <feColorMatrix
         id="feColorMatrix4149"
         values="0 0 0 0 1 0 0 0 0 1 0 0 0 0 1 0 0 0 1 0"
         in="SourceGraphic"
         type="matrix" />
    </filter>
    <clipPath
       id="clipPath17821">
      <rect
         id="rect17819"
         height="19"
         width="18"
         x="0"
         y="0" />
    </clipPath>
    <clipPath
       id="clipPath17825">
      <path
         id="path17823"
         d="m 0.898438,0.128906 h 16.25 v 17.882813 h -16.25 z m 0,0"
         inkscape:connector-curvature="0" />
    </clipPath>
    <clipPath
       id="clip87">
      <rect
         id="rect4848"
         height="26"
         width="24"
         x="0"
         y="0" />
    </clipPath>
    <clipPath
       id="clip88">
      <path
         id="path4845"
         d="m 0.683594,0.921875 h 22.679687 v 24.9375 H 0.683594 Z m 0,0"
         inkscape:connector-curvature="0" />
    </clipPath>
    <mask
       id="mask43">
      <g
         transform="matrix(0.26458333,0,0,0.26458333,89.358789,128.57765)"
         id="g4842"
         style="filter:url(#alpha)">
        <rect
           id="rect4840"
           style="fill:#000000;fill-opacity:0.14999402;stroke:none"
           height="3351.5"
           width="3052.8701"
           y="0"
           x="0" />
      </g>
    </mask>
    <filter
       height="1"
       width="1"
       y="0"
       x="0"
       filterUnits="objectBoundingBox"
       id="filter17836">
      <feColorMatrix
         id="feColorMatrix17834"
         values="0 0 0 0 1 0 0 0 0 1 0 0 0 0 1 0 0 0 1 0"
         in="SourceGraphic"
         type="matrix" />
    </filter>
    <clipPath
       id="clipPath17840">
      <rect
         id="rect17838"
         height="26"
         width="24"
         x="0"
         y="0" />
    </clipPath>
    <clipPath
       id="clipPath17844">
      <path
         id="path17842"
         d="m 0.683594,0.921875 h 22.679687 v 24.9375 H 0.683594 Z m 0,0"
         inkscape:connector-curvature="0" />
    </clipPath>
    <clipPath
       id="clipPath6367"
       clipPathUnits="userSpaceOnUse">
      <path
         inkscape:connector-curvature="0"
         id="path6365"
         d="M 0,3193 H 2089 V 0 H 0 Z" />
    </clipPath>
    <clipPath
       id="clipPath6367-0"
       clipPathUnits="userSpaceOnUse">
      <path
         inkscape:connector-curvature="0"
         id="path6365-5"
         d="M 0,3193 H 2089 V 0 H 0 Z" />
    </clipPath>
  </defs>
  <sodipodi:namedview
     id="base"
     pagecolor="#ffffff"
     bordercolor="#666666"
     borderopacity="1.0"
     inkscape:pageopacity="0.0"
     inkscape:pageshadow="2"
     inkscape:zoom="2.8222657"
     inkscape:cx="269.06447"
     inkscape:cy="197.28908"
     inkscape:document-units="mm"
     inkscape:current-layer="layer1"
     showgrid="false"
     inkscape:window-width="3840"
     inkscape:window-height="2100"
     inkscape:window-x="0"
     inkscape:window-y="60"
     inkscape:window-maximized="0"
     inkscape:snap-global="false"
     objecttolerance="21"
     inkscape:snap-path-clip="false"
     inkscape:snap-path-mask="false"
     borderlayer="true">
    <inkscape:grid
       type="xygrid"
       id="grid834"
       units="mm"
       spacingx="5.08"
       spacingy="5.08" />
  </sodipodi:namedview>
  <metadata
     id="metadata5">
    <rdf:RDF>
      <cc:Work
         rdf:about="">
        <dc:format>image/svg+xml</dc:format>
        <dc:type
           rdf:resource="http://purl.org/dc/dcmitype/StillImage" />
        <dc:title></dc:title>
      </cc:Work>
    </rdf:RDF>
  </metadata>
  <g
     inkscape:label="Layer 1"
     inkscape:groupmode="layer"
     id="layer1"
     transform="translate(0,-168.5)"
     style="display:inline">
    <path
       style="fill:#e0e1e3;fill-opacity:1;stroke:none;stroke-width:0.53912485;stroke-miterlimit:4;stroke-dasharray:none;stroke-opacity:1"
       d="m -7.427554e-4,168.50002 c 27.0933397554,0 54.1866697554,0 81.2799887554,0 0,42.83333 0,85.66666 0,128.5 -27.093319,0 -54.186649,0 -81.2799887554,0 0,-42.83334 0,-85.66667 0,-128.5 z"
       id="rect2580"
       inkscape:connector-curvature="0"
       sodipodi:insensitive="true" />
    <g
       style="font-style:normal;font-weight:normal;font-size:10.58333302px;line-height:1.25;font-family:sans-serif;letter-spacing:0px;word-spacing:0px;fill:#000000;fill-opacity:1;stroke:none;stroke-width:0.26458332"
       id="text8299" />
    <g
       style="font-style:normal;font-variant:normal;font-weight:normal;font-stretch:normal;font-size:1.76388884px;line-height:1.25;font-family:'Razer BlackWidow';-inkscape-font-specification:'Razer BlackWidow, Normal';font-variant-ligatures:normal;font-variant-caps:normal;font-variant-numeric:normal;text-align:start;letter-spacing:0px;word-spacing:0px;writing-mode:lr-tb;text-anchor:start;fill:#000000;fill-opacity:1;stroke:none;stroke-width:0.26458332"
       id="text955" />
    <g
       style="font-style:normal;font-variant:normal;font-weight:normal;font-stretch:normal;font-size:4.23333311px;line-height:1.25;font-family:'Razer BlackWidow';-inkscape-font-specification:'Razer BlackWidow, Normal';font-variant-ligatures:normal;font-variant-caps:normal;font-variant-numeric:normal;font-feature-settings:normal;text-align:start;letter-spacing:0px;word-spacing:0px;writing-mode:lr-tb;text-anchor:start;fill:#000000;fill-opacity:1;stroke:none;stroke-width:0.26458332"
       id="text959-1-2" />
    <g
       aria-label="PointCounter"
       transform="rotate(90)"
       style="font-style:normal;font-variant:normal;font-weight:300;font-stretch:normal;font-size:7.05555582px;line-height:1.25;font-family:Bahnschrift;-inkscape-font-specification:'Bahnschrift, Light';font-variant-ligatures:normal;font-variant-caps:normal;font-variant-numeric:normal;font-feature-settings:normal;text-align:center;letter-spacing:0px;word-spacing:0px;writing-mode:lr-tb;text-anchor:middle;fill:#000000;fill-opacity:1;stroke:none;stroke-width:0.26458332"
       id="text621">
      <path
         d="m 172.28794,-5.1719621 h 1.52187 q 0.27819,0 0.49093,-0.1276408 0.21273,-0.1276408 0.32728,-0.3567397 0.11782,-0.2290989 0.11782,-0.5302002 v 0 q 0,-0.3043742 -0.11782,-0.5334731 -0.11455,-0.2323717 -0.32728,-0.3600125 -0.21274,-0.1276408 -0.49093,-0.1276408 h -1.52187 v -0.4385607 h 1.49896 q 0.42547,0 0.74948,0.1832791 0.32401,0.1800062 0.50075,0.5105632 0.18,0.3305569 0.18,0.7658448 v 0 q 0,0.432015 -0.18,0.7625719 -0.17674,0.3272841 -0.50075,0.5105632 -0.32401,0.1800063 -0.74948,0.1800063 h -1.49896 z m -0.34365,-2.4742678 h 0.47129 v 4.7587108 h -0.47129 z"
         style="font-size:6.70277834px;stroke-width:0.26458332"
         id="path1597" />
      <path
         d="m 177.05974,-2.8384265 q -0.44183,0 -0.75602,-0.1734606 -0.3142,-0.1734606 -0.48111,-0.5040175 -0.16364,-0.3338298 -0.16364,-0.801846 v -0.5531102 q 0,-0.4614705 0.16364,-0.7887546 0.16691,-0.330557 0.48111,-0.5007447 0.31419,-0.1734606 0.75602,-0.1734606 0.44184,0 0.75603,0.1734606 0.31419,0.1701877 0.47783,0.5007447 0.16692,0.3272841 0.16692,0.7887546 v 0.5629287 q 0,0.4647434 -0.16692,0.7953004 -0.16364,0.327284 -0.47783,0.5007446 -0.31419,0.1734606 -0.75603,0.1734606 z m -0.003,-0.4385607 q 0.44511,0 0.6873,-0.268373 0.24546,-0.2716458 0.24546,-0.7625719 v -0.5629287 q 0,-0.4876533 -0.24546,-0.7560262 -0.24219,-0.268373 -0.6873,-0.268373 -0.44183,0 -0.68403,0.268373 -0.24219,0.2683729 -0.24219,0.7560262 v 0.5629287 q 0,0.4909261 0.24219,0.7625719 0.2422,0.268373 0.68403,0.268373 z"
         style="font-size:6.70277834px;stroke-width:0.26458332"
         id="path1599" />
      <path
         d="m 179.50783,-7.6462299 h 0.47129 v 0.4712891 h -0.47129 z m 0,1.3615018 h 0.47129 v 3.397209 h -0.47129 z"
         style="font-size:6.70277834px;stroke-width:0.26458332"
         id="path1601" />
      <path
         d="m 181.09188,-6.2847281 h 0.47129 v 3.397209 h -0.47129 z m 2.25826,1.338592 q 0,-0.4516521 -0.23892,-0.700388 -0.23564,-0.2487359 -0.66766,-0.2487359 -0.41892,0 -0.65129,0.2225532 -0.2291,0.2192803 -0.2291,0.6251126 l -0.0687,-0.6545682 q 0.18001,-0.3338297 0.47784,-0.4811076 0.29782,-0.1505507 0.69056,-0.1505507 0.55311,0 0.85422,0.3632854 0.30437,0.3600125 0.30437,1.0211264 v 2.0618898 h -0.47129 z"
         style="font-size:6.70277834px;stroke-width:0.26458332"
         id="path1603" />
      <path
         d="m 185.71968,-2.8711549 q -0.41238,0 -0.60548,-0.225826 -0.18982,-0.2290989 -0.18982,-0.6742053 V -7.273126 h 0.47129 v 3.5084855 q 0,0.2192803 0.0982,0.3371026 0.0982,0.1178223 0.29129,0.1178223 h 0.32073 v 0.4385607 z m -1.1455,-3.4135732 h 1.53169 v 0.4058323 h -1.53169 z"
         style="font-size:6.70277834px;stroke-width:0.26458332"
         id="path1605" />
      <path
         d="m 188.6456,-2.8384265 q -0.4942,0 -0.87058,-0.2192804 -0.3731,-0.2192803 -0.57929,-0.6218397 -0.20619,-0.4025595 -0.20619,-0.9327597 v -1.3058636 q 0,-0.5302002 0.20619,-0.9327597 0.20619,-0.4025594 0.57929,-0.6218397 0.37638,-0.2225532 0.87058,-0.2225532 0.4091,0 0.75275,0.1669149 0.34365,0.1669149 0.57275,0.4745619 0.23237,0.3043742 0.31419,0.7069337 v 0 H 189.814 v 0 q -0.0786,-0.268373 -0.25855,-0.474562 -0.17673,-0.206189 -0.41565,-0.3207384 -0.23892,-0.1145494 -0.4942,-0.1145494 -0.35347,0 -0.62184,0.1669149 -0.26837,0.1669148 -0.41565,0.4712891 -0.14728,0.3011013 -0.14728,0.7003879 v 1.3058636 q 0,0.3992866 0.14728,0.7036608 0.14728,0.3011014 0.41565,0.4680163 0.26837,0.163642 0.62184,0.163642 0.25528,0 0.4942,-0.1080038 0.23892,-0.1080037 0.41565,-0.3141927 0.18,-0.206189 0.25855,-0.4876533 v 0 h 0.47129 v 0 q -0.0818,0.4025594 -0.31419,0.7102065 -0.23237,0.3043742 -0.57602,0.4712891 -0.34365,0.1669149 -0.74948,0.1669149 z"
         style="font-size:6.70277834px;stroke-width:0.26458332"
         id="path1607" />
      <path
         d="m 192.47155,-2.8384265 q -0.44183,0 -0.75603,-0.1734606 -0.31419,-0.1734606 -0.4811,-0.5040175 -0.16365,-0.3338298 -0.16365,-0.801846 v -0.5531102 q 0,-0.4614705 0.16365,-0.7887546 0.16691,-0.330557 0.4811,-0.5007447 0.3142,-0.1734606 0.75603,-0.1734606 0.44183,0 0.75603,0.1734606 0.31419,0.1701877 0.47783,0.5007447 0.16692,0.3272841 0.16692,0.7887546 v 0.5629287 q 0,0.4647434 -0.16692,0.7953004 -0.16364,0.327284 -0.47783,0.5007446 -0.3142,0.1734606 -0.75603,0.1734606 z m -0.003,-0.4385607 q 0.4451,0 0.68729,-0.268373 0.24547,-0.2716458 0.24547,-0.7625719 v -0.5629287 q 0,-0.4876533 -0.24547,-0.7560262 -0.24219,-0.268373 -0.68729,-0.268373 -0.44184,0 -0.68403,0.268373 -0.24219,0.2683729 -0.24219,0.7560262 v 0.5629287 q 0,0.4909261 0.24219,0.7625719 0.24219,0.268373 0.68403,0.268373 z"
         style="font-size:6.70277834px;stroke-width:0.26458332"
         id="path1609" />
      <path
         d="m 196.9848,-6.2847281 h 0.46801 v 3.397209 h -0.46801 z m -1.77388,2.0651627 q 0,0.4483792 0.23237,0.6971151 0.23237,0.2454631 0.65784,0.2454631 0.4222,0 0.6513,-0.225826 0.23237,-0.2258261 0.23237,-0.638204 l 0.0458,0.7102065 q -0.12437,0.2520087 -0.41238,0.4221965 -0.28474,0.1701877 -0.70366,0.1701877 -0.56293,0 -0.87058,-0.3600125 -0.30437,-0.3632854 -0.30437,-1.0211264 v -2.0651627 h 0.47129 z"
         style="font-size:6.70277834px;stroke-width:0.26458332"
         id="path1611" />
      <path
         d="m 198.46739,-6.2847281 h 0.47129 v 3.397209 h -0.47129 z m 2.25826,1.338592 q 0,-0.4516521 -0.23891,-0.700388 -0.23565,-0.2487359 -0.66766,-0.2487359 -0.41893,0 -0.6513,0.2225532 -0.2291,0.2192803 -0.2291,0.6251126 l -0.0687,-0.6545682 q 0.18001,-0.3338297 0.47784,-0.4811076 0.29783,-0.1505507 0.69057,-0.1505507 0.55311,0 0.85421,0.3632854 0.30437,0.3600125 0.30437,1.0211264 v 2.0618898 h -0.47129 z"
         style="font-size:6.70277834px;stroke-width:0.26458332"
         id="path1613" />
      <path
         d="m 203.09519,-2.8711549 q -0.41238,0 -0.60547,-0.225826 -0.18983,-0.2290989 -0.18983,-0.6742053 V -7.273126 h 0.47129 v 3.5084855 q 0,0.2192803 0.0982,0.3371026 0.0982,0.1178223 0.29128,0.1178223 h 0.32074 v 0.4385607 z m -1.14549,-3.4135732 h 1.53169 v 0.4058323 h -1.53169 z"
         style="font-size:6.70277834px;stroke-width:0.26458332"
         id="path1615" />
      <path
         d="m 205.78874,-2.8384265 q -0.47129,0 -0.80512,-0.1767334 -0.33383,-0.1800063 -0.51056,-0.5203817 -0.17346,-0.3436483 -0.17346,-0.824756 V -4.74322 q 0,-0.5040175 0.16691,-0.8607571 0.17019,-0.3567397 0.49093,-0.5432916 0.32074,-0.186552 0.77239,-0.186552 0.42547,0 0.72657,0.1832791 0.3011,0.1832791 0.4582,0.5367459 0.16037,0.350194 0.16037,0.844393 v 0.3894681 h -2.45464 v -0.4254693 h 2.01607 v -0.032728 q 0,-0.5040176 -0.23891,-0.7789362 -0.23565,-0.2781915 -0.66766,-0.2781915 -0.47456,0 -0.73312,0.2912829 -0.25855,0.2912828 -0.25855,0.8247559 v 0.432015 q 0,0.5105632 0.27492,0.7920275 0.27491,0.2781915 0.77566,0.2781915 0.23564,0 0.46474,-0.098185 0.23237,-0.098185 0.41238,-0.2781915 v 0 l 0.32074,0.307647 v 0 q -0.24874,0.2421903 -0.56293,0.3763768 -0.31419,0.1309136 -0.63493,0.1309136 z"
         style="font-size:6.70277834px;stroke-width:0.26458332"
         id="path1617" />
      <path
         d="m 207.99136,-6.2847281 h 0.47129 v 3.397209 h -0.47129 z m 1.99971,0.6087485 q -0.10473,-0.1080038 -0.2651,-0.1636421 -0.1571,-0.055638 -0.36656,-0.055638 -0.42547,0 -0.66112,0.2290989 -0.23564,0.225826 -0.23564,0.6283855 l -0.0687,-0.6545682 q 0.18655,-0.3043743 0.48765,-0.4712891 0.30438,-0.1701878 0.66439,-0.1701878 0.23237,0 0.41892,0.06873 0.18983,0.065457 0.33056,0.1963704 z"
         style="font-size:6.70277834px;stroke-width:0.26458332"
         id="path1619" />
    </g>
    <g
       aria-label="in"
       transform="rotate(90)"
       style="font-style:normal;font-variant:normal;font-weight:300;font-stretch:normal;font-size:4.23333359px;line-height:1.25;font-family:Bahnschrift;-inkscape-font-specification:'Bahnschrift, Light';font-variant-ligatures:normal;font-variant-caps:normal;font-variant-numeric:normal;font-feature-settings:normal;text-align:center;letter-spacing:0px;word-spacing:0px;writing-mode:lr-tb;text-anchor:middle;fill:#000000;fill-opacity:1;stroke:none;stroke-width:0.26458332"
       id="text625">
      <path
         d="m 225.50085,-6.7696252 h 0.29766 v 0.2976563 h -0.29766 z m 0,0.8598959 h 0.29766 v 2.1456056 h -0.29766 z"
         style="font-size:4.23333359px;stroke-width:0.26458332"
         id="path1592" />
      <path
         d="m 226.50131,-5.9097293 h 0.29765 v 2.1456056 h -0.29765 z m 1.42627,0.8454265 q 0,-0.2852539 -0.1509,-0.4423503 -0.14883,-0.1570963 -0.42168,-0.1570963 -0.26458,0 -0.41134,0.1405599 -0.1447,0.1384928 -0.1447,0.3948079 l -0.0434,-0.4134115 q 0.11368,-0.2108398 0.30179,-0.3038574 0.1881,-0.095085 0.43614,-0.095085 0.34934,0 0.53951,0.2294433 0.19223,0.2273764 0.19223,0.6449219 v 1.3022462 h -0.29765 z"
         style="font-size:4.23333359px;stroke-width:0.26458332"
         id="path1594" />
    </g>
    <rect
       style="opacity:0.39800002;fill:#f8ec68;fill-opacity:1;stroke:none;stroke-width:12.07313824;stroke-linecap:butt;stroke-linejoin:miter;stroke-miterlimit:4;stroke-dasharray:12.07313813, 579.51063003;stroke-dashoffset:0;stroke-opacity:1;paint-order:normal"
       id="rect661"
       width="14.999768"
       height="32.718246"
       x="-2.3437138"
       y="235.4072" />
    <g
       aria-label="10000pt/v"
       transform="rotate(90)"
       style="font-style:normal;font-variant:normal;font-weight:300;font-stretch:normal;font-size:4.23333359px;line-height:1.25;font-family:Bahnschrift;-inkscape-font-specification:'Bahnschrift, Light';font-variant-ligatures:normal;font-variant-caps:normal;font-variant-numeric:normal;font-feature-settings:normal;text-align:center;letter-spacing:0px;word-spacing:0px;writing-mode:lr-tb;text-anchor:middle;display:inline;fill:#000000;fill-opacity:1;stroke:none;stroke-width:0.26458332"
       id="text625-3">
      <path
         d="m 248.96159,-4.0225058 h -0.29766 v -2.7533204 l -0.5519,0.3451986 v -0.3121257 l 0.42788,-0.2852539 h 0.42168 z"
         style="font-size:4.23333359px;stroke-width:0.26458332"
         id="path1573" />
      <path
         d="m 250.50155,-3.9914999 q -0.42168,0 -0.64079,-0.2253093 -0.21704,-0.2253092 -0.21704,-0.6283854 v -1.366325 q 0,-0.4051432 0.21911,-0.6283854 0.2191,-0.2253093 0.63872,-0.2253093 0.42168,0 0.63872,0.2232422 0.2191,0.2232422 0.2191,0.6304525 v 1.366325 q 0,0.4051432 -0.2191,0.6304525 -0.21911,0.2232422 -0.63872,0.2232422 z m 0,-0.2769857 q 0.28732,0 0.42374,-0.1488281 0.13643,-0.1508952 0.13643,-0.4278809 v -1.366325 q 0,-0.2790527 -0.13643,-0.4278808 -0.13642,-0.1488282 -0.42374,-0.1488282 -0.28733,0 -0.42375,0.1488282 -0.13643,0.1488281 -0.13643,0.4278808 v 1.366325 q 0,0.2769857 0.13643,0.4278809 0.13642,0.1488281 0.42375,0.1488281 z"
         style="font-size:4.23333359px;stroke-width:0.26458332"
         id="path1575" />
      <path
         d="m 252.75464,-3.9914999 q -0.42168,0 -0.64079,-0.2253093 -0.21704,-0.2253092 -0.21704,-0.6283854 v -1.366325 q 0,-0.4051432 0.21911,-0.6283854 0.21911,-0.2253093 0.63872,-0.2253093 0.42168,0 0.63872,0.2232422 0.21911,0.2232422 0.21911,0.6304525 v 1.366325 q 0,0.4051432 -0.21911,0.6304525 -0.21911,0.2232422 -0.63872,0.2232422 z m 0,-0.2769857 q 0.28732,0 0.42375,-0.1488281 0.13642,-0.1508952 0.13642,-0.4278809 v -1.366325 q 0,-0.2790527 -0.13642,-0.4278808 -0.13643,-0.1488282 -0.42375,-0.1488282 -0.28732,0 -0.42375,0.1488282 -0.13642,0.1488281 -0.13642,0.4278808 v 1.366325 q 0,0.2769857 0.13642,0.4278809 0.13643,0.1488281 0.42375,0.1488281 z"
         style="font-size:4.23333359px;stroke-width:0.26458332"
         id="path1577" />
      <path
         d="m 255.00773,-3.9914999 q -0.42168,0 -0.64079,-0.2253093 -0.21704,-0.2253092 -0.21704,-0.6283854 v -1.366325 q 0,-0.4051432 0.21911,-0.6283854 0.21911,-0.2253093 0.63872,-0.2253093 0.42168,0 0.63872,0.2232422 0.21911,0.2232422 0.21911,0.6304525 v 1.366325 q 0,0.4051432 -0.21911,0.6304525 -0.21911,0.2232422 -0.63872,0.2232422 z m 0,-0.2769857 q 0.28732,0 0.42375,-0.1488281 0.13642,-0.1508952 0.13642,-0.4278809 v -1.366325 q 0,-0.2790527 -0.13642,-0.4278808 -0.13643,-0.1488282 -0.42375,-0.1488282 -0.28732,0 -0.42375,0.1488282 -0.13642,0.1488281 -0.13642,0.4278808 v 1.366325 q 0,0.2769857 0.13642,0.4278809 0.13643,0.1488281 0.42375,0.1488281 z"
         style="font-size:4.23333359px;stroke-width:0.26458332"
         id="path1579" />
      <path
         d="m 257.26082,-3.9914999 q -0.42168,0 -0.64078,-0.2253093 -0.21705,-0.2253092 -0.21705,-0.6283854 v -1.366325 q 0,-0.4051432 0.21911,-0.6283854 0.21911,-0.2253093 0.63872,-0.2253093 0.42168,0 0.63872,0.2232422 0.21911,0.2232422 0.21911,0.6304525 v 1.366325 q 0,0.4051432 -0.21911,0.6304525 -0.2191,0.2232422 -0.63872,0.2232422 z m 0,-0.2769857 q 0.28732,0 0.42375,-0.1488281 0.13643,-0.1508952 0.13643,-0.4278809 v -1.366325 q 0,-0.2790527 -0.13643,-0.4278808 -0.13643,-0.1488282 -0.42375,-0.1488282 -0.28732,0 -0.42374,0.1488282 -0.13643,0.1488281 -0.13643,0.4278808 v 1.366325 q 0,0.2769857 0.13643,0.4278809 0.13642,0.1488281 0.42374,0.1488281 z"
         style="font-size:4.23333359px;stroke-width:0.26458332"
         id="path1581" />
      <path
         d="m 258.75944,-6.1681114 h 0.29766 v 3.0179039 h -0.29766 z m 0.96118,2.1766115 q -0.26045,0 -0.43615,-0.084749 -0.1757,-0.086816 -0.25631,-0.2831868 l 0.0289,-0.4485515 q 0,0.1405599 0.0661,0.2707845 0.0661,0.1281576 0.19017,0.2087728 0.12403,0.080615 0.28939,0.080615 0.26872,0 0.41548,-0.1591634 0.14676,-0.1612305 0.14676,-0.4506186 v -0.4650879 q 0,-0.2955892 -0.14676,-0.4568197 -0.14676,-0.1632975 -0.41548,-0.1632975 -0.16536,0 -0.28939,0.080615 -0.12402,0.078548 -0.19017,0.2046387 -0.0661,0.1260905 -0.0661,0.2645834 l -0.0434,-0.4134115 q 0.11162,-0.2087728 0.29559,-0.2997233 0.18603,-0.093018 0.43201,-0.093018 0.22738,0 0.38861,0.1033529 0.1633,0.1012858 0.24805,0.2976562 0.0847,0.1963705 0.0847,0.4733562 v 0.4671549 q 0,0.2728516 -0.0868,0.467155 -0.0868,0.1943034 -0.25425,0.2976563 -0.16743,0.1012858 -0.40101,0.1012858 z"
         style="font-size:4.23333359px;stroke-width:0.26458332"
         id="path1583" />
      <path
         d="m 261.62025,-4.0121705 q -0.26045,0 -0.38241,-0.1426269 -0.11989,-0.1446941 -0.11989,-0.4258139 v -2.2117514 h 0.29766 v 2.2158856 q 0,0.1384928 0.062,0.2129069 0.062,0.074414 0.18397,0.074414 h 0.20257 v 0.2769857 z m -0.72347,-2.1559409 h 0.96738 v 0.2563152 h -0.96738 z"
         style="font-size:4.23333359px;stroke-width:0.26458332"
         id="path1585" />
      <path
         d="m 262.39126,-3.4519979 h -0.27905 l 1.47794,-3.9315432 h 0.27906 z"
         style="font-size:4.23333359px;stroke-width:0.26458332"
         id="path1587" />
      <path
         d="m 265.4319,-6.1681114 h 0.31626 l -0.84749,2.1456056 h -0.23565 l -0.84749,-2.1456056 h 0.31626 l 0.64906,1.7590659 z"
         style="font-size:4.23333359px;stroke-width:0.26458332"
         id="path1589" />
    </g>
    <rect
       style="opacity:0.39800002;fill:#68f879;fill-opacity:1;stroke:none;stroke-width:12.97379684;stroke-linecap:butt;stroke-linejoin:miter;stroke-miterlimit:4;stroke-dasharray:12.97379693, 622.74225292;stroke-dashoffset:0;stroke-opacity:1;paint-order:normal"
       id="rect663"
       width="12.749804"
       height="21.749666"
       x="-0.84373707"
       y="272.43787" />
    <g
       aria-label="thru"
       transform="rotate(90)"
       style="font-style:normal;font-variant:normal;font-weight:300;font-stretch:normal;font-size:4.23333359px;line-height:1.25;font-family:Bahnschrift;-inkscape-font-specification:'Bahnschrift, Light';font-variant-ligatures:normal;font-variant-caps:normal;font-variant-numeric:normal;font-feature-settings:normal;text-align:center;letter-spacing:0px;word-spacing:0px;writing-mode:lr-tb;text-anchor:middle;display:inline;fill:#000000;fill-opacity:1;stroke:none;stroke-width:0.26458332"
       id="text625-7">
      <path
         d="m 284.68275,-3.7692913 q -0.26045,0 -0.38241,-0.142627 -0.11989,-0.144694 -0.11989,-0.4258138 v -2.2117514 h 0.29766 v 2.2158855 q 0,0.1384929 0.062,0.2129069 0.062,0.074414 0.18397,0.074414 h 0.20257 v 0.2769857 z m -0.72347,-2.1559409 h 0.96738 v 0.2563151 h -0.96738 z"
         style="font-size:4.23333359px;stroke-width:0.26458332"
         id="path1564" />
      <path
         d="m 285.50544,-6.7851281 h 0.29765 v 3.0055015 h -0.29765 z m 1.42627,1.7053224 q 0,-0.2852539 -0.1509,-0.4423503 -0.14883,-0.1570964 -0.42168,-0.1570964 -0.26458,0 -0.41134,0.1405599 -0.1447,0.1384929 -0.1447,0.394808 l -0.0434,-0.4134115 q 0.11368,-0.2108398 0.30179,-0.3038574 0.1881,-0.095085 0.43615,-0.095085 0.34933,0 0.5395,0.2294434 0.19223,0.2273763 0.19223,0.6449219 v 1.3022462 h -0.29765 z"
         style="font-size:4.23333359px;stroke-width:0.26458332"
         id="path1566" />
      <path
         d="m 287.87015,-5.9252322 h 0.29766 v 2.1456056 h -0.29766 z m 1.26297,0.3844727 q -0.0661,-0.068213 -0.16743,-0.1033529 -0.0992,-0.03514 -0.23151,-0.03514 -0.26872,0 -0.41754,0.144694 -0.14883,0.142627 -0.14883,0.3968751 l -0.0434,-0.4134115 q 0.11782,-0.1922364 0.30799,-0.2976563 0.19224,-0.107487 0.41961,-0.107487 0.14677,0 0.26459,0.043408 0.11989,0.041341 0.20877,0.1240235 z"
         style="font-size:4.23333359px;stroke-width:0.26458332"
         id="path1568" />
      <path
         d="m 291.09476,-5.9252322 h 0.29559 v 2.1456056 h -0.29559 z m -1.12034,1.3043132 q 0,0.2831869 0.14676,0.4402833 0.14676,0.1550293 0.41548,0.1550293 0.26665,0 0.41134,-0.142627 0.14676,-0.142627 0.14676,-0.4030762 l 0.0289,0.4485515 q -0.0786,0.1591634 -0.26045,0.2666504 -0.17983,0.107487 -0.44442,0.107487 -0.35553,0 -0.54983,-0.2273764 -0.19224,-0.2294433 -0.19224,-0.6449219 v -1.3043132 h 0.29766 z"
         style="font-size:4.23333359px;stroke-width:0.26458332"
         id="path1570" />
    </g>
  </g>
  <g
     inkscape:label="components"
     id="g3297"
     inkscape:groupmode="layer"
     style="display:none">
    <circle
       style="display:inline;opacity:1;fill:#00ff00;fill-opacity:1;stroke:none;stroke-width:0.5213756;stroke-miterlimit:4;stroke-dasharray:none;stroke-opacity:1"
       id="path1619-9-3-88"
       cx="5.1768255"
       cy="50.712624"
       inkscape:label="points"
       r="1.7995" />
    <circle
       style="display:inline;opacity:1;fill:#0000ff;fill-opacity:1;stroke:none;stroke-width:0.5213756;stroke-miterlimit:4;stroke-dasharray:none;stroke-opacity:1"
       id="path1619-9-3-88-0-3"
       cx="5.5853639"
       cy="73.107048"
       inkscape:label="count"
       r="1.7995" />
    <circle
       style="display:inline;opacity:1;fill:#0000ff;fill-opacity:1;stroke:none;stroke-width:0.5213756;stroke-miterlimit:4;stroke-dasharray:none;stroke-opacity:1"
       id="path1619-9-3-88-0-3-9"
       cx="4.8686996"
       cy="109.40237"
       inkscape:label="points"
       r="1.7995" />
  </g>
</svg>
